<?xml version="1.0" encoding="iso-8859-1"?>
<!-- Generator: Adobe Illustrator 16.0.0, SVG Export Plug-In . SVG Version: 6.00 Build 0)  -->
<!DOCTYPE svg PUBLIC "-//W3C//DTD SVG 1.1//EN" "http://www.w3.org/Graphics/SVG/1.1/DTD/svg11.dtd">
<svg version="1.1" id="Capa_1" xmlns="http://www.w3.org/2000/svg" xmlns:xlink="http://www.w3.org/1999/xlink" x="0px" y="0px"
	 width="30px" height="30px" viewBox="0 0 968.734 968.734" style="enable-background:new 0 0 968.734 968.734;"
	 xml:space="preserve">
<g>
	<path d="M894.403,619.999c-3.47,0-6.901,0.236-10.275,0.699c-16.458-36.482-53.177-61.938-95.729-61.938
		c-2.985,0-5.959,0.134-8.916,0.387c2.04-14.274,3.084-28.748,3.084-43.381c0-40.944-8.026-80.682-23.856-118.105
		c-1.07-2.529-2.18-5.035-3.312-7.527c33.196-0.58,60.028-27.747,60.028-61.08c0-33.695-27.412-61.107-61.106-61.107
		c-0.369,0-0.739,0.003-1.107,0.01c-14.075-25.075-40.927-42.054-71.672-42.054c-2.804,0-5.595,0.144-8.364,0.428
		c-5.965-15.388-15.128-29.505-27.148-41.525c-22.72-22.721-52.93-35.233-85.062-35.233s-62.34,12.513-85.061,35.233
		c-8.553,8.553-15.657,18.168-21.194,28.546c-32.315,2.565-63.721,10.218-93.646,22.875c-36.132,15.282-68.575,37.154-96.428,65.007
		c-27.853,27.853-49.724,60.296-65.007,96.428c-10.086,23.846-16.989,48.633-20.682,74.07c-4.152,7.296-7.626,14.938-10.363,22.854
		c-4.712-0.742-9.498-1.121-14.317-1.121c-35.895,0-67.061,20.628-82.265,50.655c-1.685-0.125-3.384-0.188-5.093-0.188
		C30.016,543.932,0,573.947,0,610.842c0,36.896,30.016,66.912,66.911,66.912h155.671c11.96,18.921,26.008,36.5,42.055,52.546
		c27.853,27.854,60.295,49.726,96.428,65.008c37.425,15.829,77.161,23.854,118.104,23.854c40.944,0,80.68-8.025,118.105-23.854
		c17.416-7.367,33.965-16.279,49.565-26.64h247.561c40.987,0,74.333-33.346,74.333-74.334
		C968.736,653.346,935.391,619.999,894.403,619.999z M472.821,270.976c-0.004-0.37-0.015-0.739-0.015-1.11
		c0-8.806,1.309-17.303,3.712-25.328c1.679-5.605,3.896-10.977,6.601-16.052c3.01-5.651,6.622-10.928,10.742-15.762
		c16.17-18.972,40.225-31.018,67.105-31.018c46.801,0,85.063,36.472,87.963,82.541c0.117,1.859,0.197,3.729,0.197,5.619
		c0,0.036-0.001,0.071-0.001,0.106c1.224-1.042,2.503-2.021,3.824-2.944c8.104-5.662,17.956-8.991,28.592-8.991
		c27.611,0,49.995,22.383,49.995,49.994c0,1.106-0.049,2.2-0.119,3.288c5.3-6.834,13.584-11.238,22.903-11.238
		c16.001,0,28.972,12.972,28.972,28.973c0,16-12.971,28.973-28.972,28.973h-15.917h-18.985h-19.551H475.875
		c-24.071,0-43.585-19.513-43.585-43.584C432.291,291.399,450.177,272.546,472.821,270.976z M66.912,645.619
		c-19.206,0-34.776-15.57-34.776-34.777c0-19.205,15.57-34.775,34.776-34.775c11.185,0,21.129,5.286,27.491,13.49
		c-0.085-1.307-0.143-2.619-0.143-3.947c0-33.143,26.867-60.009,60.01-60.009c7.705,0,15.065,1.464,21.832,4.109
		c1.618,36.022,9.504,71.001,23.53,104.162c1.676,3.963,3.446,7.874,5.28,11.748L66.912,645.619L66.912,645.619z M479.171,787.027
		c-89.091,0-168.146-42.951-217.599-109.273c-3.888-5.215-7.594-10.574-11.106-16.066c-3.347-5.235-6.517-10.596-9.506-16.067
		c-21.068-38.567-33.049-82.809-33.049-129.853c0-11.215,0.694-22.267,2.016-33.123c1.314-10.793,3.268-21.39,5.812-31.754
		c2.239-9.122,4.934-18.063,8.07-26.798c33.466-93.207,116.502-162.77,217.328-176.919c-7.591,3.922-14.539,9.13-20.518,15.507
		c-13.196,14.078-20.463,32.46-20.463,51.762c0,41.752,33.968,75.719,75.719,75.719h243.766
		c19.657,37.556,30.791,80.277,30.791,125.605c0,3.144-0.072,6.271-0.179,9.389c-6.683-11.065-14.691-21.289-23.954-30.551
		c-14.733-14.733-31.899-26.306-51.021-34.394c-19.813-8.38-40.842-12.629-62.5-12.629s-42.688,4.249-62.5,12.629
		c-19.121,8.088-36.287,19.659-51.021,34.394c-13.432,13.433-24.226,28.892-32.157,46.005c-0.77,1.657-1.521,3.325-2.234,5.015
		c-1.813,4.286-3.42,8.633-4.844,13.027c-2.686,8.276-4.692,16.731-5.988,25.331c-0.446,0.174-0.887,0.359-1.331,0.541
		c-12.623,5.147-24.102,12.989-33.641,23.167c-10.236,10.92-17.633,23.896-21.826,37.928c-1.562,5.226-2.665,10.599-3.315,16.066
		c-0.444,3.75-0.696,7.541-0.696,11.365c0,1.577,0.04,3.145,0.116,4.703c2.46,50.547,44.354,90.914,95.5,90.914h88.599
		C546.966,780.516,513.831,787.027,479.171,787.027z M894.403,736.533H687.268h-24.186h-26.267H488.839
		c-34.679,0-62.844-27.812-63.454-62.345c-0.007-0.38-0.028-0.756-0.028-1.138c0-5.779,0.789-11.373,2.236-16.693
		c5.357-19.687,19.938-35.562,38.827-42.691c5.521-2.083,11.408-3.417,17.538-3.884c0.146-0.011,0.287-0.03,0.431-0.041
		c-0.007-0.54-0.021-1.076-0.021-1.617c0-0.229,0.007-0.455,0.009-0.684c0.029-5.617,0.42-11.148,1.149-16.573
		c8.431-62.756,62.185-111.151,127.25-111.151c64.957,0,118.64,48.235,127.207,110.839c0.786,5.745,1.202,11.608,1.202,17.569
		c0,0.052-0.002,0.104-0.002,0.156c3.988-3.401,8.35-6.378,13.012-8.864c5.764-3.073,11.994-5.384,18.551-6.821
		c5.043-1.105,10.277-1.699,15.651-1.699c40.217,0,72.818,32.602,72.818,72.818c0,1.61-0.07,3.204-0.174,4.789
		c7.719-9.955,19.786-16.37,33.359-16.37c23.306,0,42.199,18.895,42.199,42.2C936.603,717.639,917.709,736.533,894.403,736.533z"/>
	<path d="M390.881,459.8c3.296-4.616,6.024-9.661,8.083-15.04c2.856-7.462,4.437-15.551,4.437-24.005
		c0-37.156-30.229-67.384-67.384-67.384c-31.648,0-58.256,21.937-65.454,51.4c-1.252,5.127-1.932,10.477-1.932,15.983
		c0,0.336,0.021,0.667,0.025,1.002c0.082,5.525,0.818,10.895,2.158,16.024c7.562,28.938,33.926,50.358,65.201,50.358
		c16.807,0,32.183-6.199,43.997-16.411C384.091,468.201,387.742,464.198,390.881,459.8z M371.228,422.214
		c-0.24,5.87-1.926,11.371-4.704,16.164c-2.762,4.761-6.601,8.819-11.187,11.837c-5.553,3.655-12.191,5.79-19.323,5.79
		c-14.724,0-27.36-9.078-32.628-21.928c-1.685-4.113-2.622-8.609-2.622-13.322c0-0.95,0.05-1.889,0.123-2.82
		c0.464-5.811,2.338-11.226,5.283-15.905c6.245-9.917,17.284-16.524,29.843-16.524c19.438,0,35.25,15.813,35.25,35.25
		C371.264,421.243,371.247,421.729,371.228,422.214z"/>
	<path d="M431.661,550.839c0.668-3.127,1.028-6.368,1.028-9.691c0-3.045-0.305-6.02-0.867-8.901
		c-2.08-10.643-7.811-19.993-15.835-26.687c-5.879-4.904-12.988-8.376-20.789-9.891c-2.865-0.556-5.82-0.856-8.844-0.856
		c-25.55,0-46.335,20.785-46.335,46.335c0,25.549,20.785,46.334,46.335,46.334C408.579,587.481,427.192,571.749,431.661,550.839z
		 M386.355,555.346c-7.83,0-14.2-6.369-14.2-14.199s6.37-14.2,14.2-14.2s14.199,6.37,14.199,14.2S394.185,555.346,386.355,555.346z"
		/>
</g>
<g>
</g>
<g>
</g>
<g>
</g>
<g>
</g>
<g>
</g>
<g>
</g>
<g>
</g>
<g>
</g>
<g>
</g>
<g>
</g>
<g>
</g>
<g>
</g>
<g>
</g>
<g>
</g>
<g>
</g>
</svg>
