<?xml version="1.0" encoding="iso-8859-1"?>
<!-- Generator: Adobe Illustrator 19.0.0, SVG Export Plug-In . SVG Version: 6.00 Build 0)  -->
<svg version="1.1" id="Capa_1" xmlns="http://www.w3.org/2000/svg" xmlns:xlink="http://www.w3.org/1999/xlink" x="0px" y="0px"
	width="30px" height="30px" viewBox="0 0 480 480" style="enable-background:new 0 0 480 480;" xml:space="preserve">
<g>
	<g>
		<path d="M472,462.972H366.096l0.64-0.528c10.141-8.471,19.523-17.81,28.04-27.912C418.168,432.636,440,424.5,440,409.076
			c0-4.728-2.48-12.704-16.056-18.76c1.744-3.461,3.395-6.971,4.952-10.528C448.8,375.132,464,365.428,464,350.972
			c0-9.432-6.824-17.6-19.328-23.44c0.896-5.211,1.605-10.459,2.128-15.744c14.936-5.36,25.2-13.664,25.2-24.816
			c0-10.472-9.144-19.24-25.752-25.056c-0.72-6.008-1.656-12-2.856-17.88c12.28-4.872,20.608-11.688,20.608-21.064
			c0-11.304-12.04-19.888-35.512-25.6c-3.163-7.17-6.696-14.172-10.584-20.976c8.592-4.488,14.096-10.168,14.096-17.424
			c0-10.928-11.376-19.016-34.4-24.728c-1.06-4.777-1.72-9.634-1.976-14.52C415.768,115.076,432,107.468,432,94.972
			c0-9.208-8.528-16.368-25.808-21.8c3.954-7.302,8.939-13.997,14.8-19.88l15.4-15.4c11.222,4.886,23.372,7.275,35.608,7
			c4.418,0,8-3.582,8-8s-3.582-8-8-8c-15.106,0.374-29.932-4.113-42.296-12.8c-30.697-20.086-70.375-20.086-101.072,0
			c-12.363,8.687-27.19,13.174-42.296,12.8c-15.096,0.374-29.912-4.113-42.264-12.8C229.213,5.97,211.576,0.714,193.6,1.052
			c-17.992-0.338-35.644,4.926-50.512,15.064c-12.363,8.679-27.187,13.158-42.288,12.776c-15.098,0.373-29.917-4.114-42.272-12.8
			C43.656,5.954,25.996,0.697,8,1.052c-4.418,0-8,3.582-8,8s3.582,8,8,8c15.096-0.374,29.912,4.113,42.264,12.8
			C65.14,39.989,82.802,45.246,100.8,44.892c17.981,0.331,35.621-4.933,50.48-15.064c12.372-8.686,27.208-13.165,42.32-12.776
			c13.565-0.452,26.951,3.207,38.4,10.496V64.5c0,3.064,0.12,6.112,0.256,9.152C216,79.036,208,86.028,208,94.972
			c0,11.376,13.48,18.704,31.112,23.432c1.788,6.684,3.91,13.273,6.36,19.744C231.104,143.5,224,150.34,224,158.972
			c0,14.544,21.696,22.928,47.456,27.44c4.631,6.384,9.62,12.501,14.944,18.32c-9.6,4.976-14.4,11.08-14.4,18.24
			c0,18.288,31.632,26.84,62.624,30.184c3.2,4.248,6.256,8.624,9.04,13.144c-12.6,6.792-15.664,14.744-15.664,20.672
			c0,13.6,15.2,22.968,35.592,27.904c0.688,2.933,1.293,5.888,1.816,8.864C346.872,329.372,336,339.244,336,350.972
			c0,13.144,12.608,22.4,29.832,27.432c-0.328,2.096-0.72,4.176-1.128,6.256C341.96,388.1,328,397.164,328,409.076
			c0,10.072,9.32,17.04,22.288,21.184L338.4,462.972H288v-120c0-4.418-3.582-8-8-8h-48v-56c0-4.418-3.582-8-8-8h-56v-40
			c0-4.418-3.582-8-8-8h-8v-56c0-4.418-3.582-8-8-8h-8v-40c0-4.418-3.582-8-8-8h-3.056L103.2,67.396
			c-2.358-3.954-7.475-5.249-11.429-2.891c-1.189,0.709-2.182,1.702-2.891,2.891l-21.824,43.576H64c-4.418,0-8,3.582-8,8v40h-8
			c-4.418,0-8,3.582-8,8v56h-8c-4.418,0-8,3.582-8,8v232H8c-4.418,0-8,3.582-8,8s3.582,8,8,8h464c4.418,0,8-3.582,8-8
			S476.418,462.972,472,462.972z M456,286.972c0,1.744-2.768,4.432-8.144,7.112c0.04-1.72,0.144-3.424,0.144-5.152
			c0-3.056-0.216-6.088-0.336-9.128C453.656,282.836,456,285.732,456,286.972z M224.496,95.02c2.737-2.122,5.816-3.761,9.104-4.848
			c0.424,3.448,0.912,6.888,1.504,10.304C231.237,99.391,227.628,97.535,224.496,95.02z M96,88.86l11.056,22.112H84.944L96,88.86z
			 M72,126.972h48v32H72V126.972z M56,174.972h80v48H56V174.972z M136,350.972h-16v16h16v16h-16v16h16v16h-16v16h16v32h-32v-128h32
			V350.972z M136,278.972v8h-16v16h16v16H96c-4.418,0-8,3.582-8,8v136H40v-224h112v32h-8C139.582,270.972,136,274.554,136,278.972z
			 M192,366.972h-24v16h24v16h-24v16h24v16h-24v16h24v16h-40v-176h64v48h-48v16h24V366.972z M272,462.972h-64v-112h64V462.972z
			 M386.896,418.868v-0.008c-0.984,0-1.872,0.104-2.896,0.104c-4.121-0.012-8.239-0.242-12.336-0.688l1.392-3.816
			c3.839-10.645,6.672-21.626,8.464-32.8c6.123,0.858,12.297,1.297,18.48,1.312c3.328,0,6.656-0.152,9.952-0.392
			C403.535,395.437,395.809,407.597,386.896,418.868z M424.045,408.762c-0.689,1.737-5.887,5.005-15.237,7.378
			c2.624-3.856,5.096-7.792,7.48-11.792C419.108,405.362,421.733,406.855,424.045,408.762z M417.536,365.596
			c-11.31,1.791-22.829,1.834-34.152,0.128c0.32-4.336,0.576-8.672,0.576-13.04c-0.011-11.688-1.15-23.347-3.4-34.816
			c6.454,0.736,12.944,1.105,19.44,1.104c10.117,0.018,20.214-0.903,30.16-2.752C427.981,333.132,423.741,349.714,417.536,365.596z
			 M448,350.972c0,2.664-4.192,6.4-11.624,9.552c1.832-5.504,3.416-11.104,4.8-16.752C446.016,346.628,448,349.372,448,350.972z
			 M448.048,222.636c-0.64,1.6-3.56,3.648-8.424,5.712c-1.144-4.096-2.4-8.152-3.8-12.184
			C440.321,217.408,444.492,219.616,448.048,222.636z M415.696,159.036L415.696,159.036c-1.699,1.745-3.749,3.109-6.016,4
			c-2.125-3.282-4.028-6.703-5.696-10.24C408.301,153.985,412.301,156.116,415.696,159.036z M415.512,95.02h-0.024
			c-5.719,4.029-12.25,6.76-19.136,8c0.713-5.111,1.875-10.149,3.472-15.056C405.475,89.237,410.811,91.636,415.512,95.02z
			 M248,36.572c11.933,5.789,25.077,8.642,38.336,8.32c17.997,0.34,35.655-4.924,50.528-15.064c25.63-17.035,58.978-17.035,84.608,0
			l0.216,0.136l-12,12c-17.252,17.3-27.813,40.154-29.808,64.504h-0.024c-19.794,3.143-39.814,4.65-59.856,4.504
			c-22.702,0.253-45.373-1.748-67.68-5.976c-2.864-13.309-4.312-26.883-4.32-40.496V36.572z M240.296,159.036v-0.016
			c3.283-2.855,7.157-4.947,11.344-6.128c2.328,4.96,4.904,9.8,7.616,14.568C252.334,166.273,245.817,163.377,240.296,159.036z
			 M280.728,171.772c-10.305-15.295-18.34-32.002-23.856-49.6c20.896,3.149,41.996,4.753,63.128,4.8
			c19.986-0.051,39.945-1.473,59.736-4.256c1.177,16.065,6.103,31.631,14.384,45.448h-0.024
			c-21.687,4.862-43.873,7.147-66.096,6.808C312.186,175.045,296.388,173.976,280.728,171.772z M287.952,223.308v-0.016
			c0,0,1.384-2.896,10.4-6.456c3.083,2.864,6.251,5.648,9.504,8.352c3.648,3,7.088,6.168,10.4,9.432
			C299.96,231.108,289.264,226.252,287.952,223.308z M342.992,237.964c-7.492-9.163-15.859-17.573-24.984-25.112
			c-8.628-7.122-16.623-14.978-23.896-23.48c12,1.112,23.856,1.6,33.888,1.6c25.188,0.302,50.311-2.615,74.76-8.68
			c9.416,15.924,16.677,33.029,21.592,50.864c-18.498,4.096-37.407,6.048-56.352,5.816
			C358.992,238.972,350.64,238.604,342.992,237.964z M344,286.972c0-0.888,1.528-3.584,7.296-6.68
			c2.591,5.326,4.893,10.787,6.896,16.36C348.856,293.244,344,289.276,344,286.972z M355.2,254.684
			c4.488,0.192,8.8,0.288,12.8,0.288c20.167,0.109,40.285-1.978,60-6.224c2.623,13.235,3.962,26.692,4,40.184
			c0,3.568-0.104,7.12-0.28,10.664c-10.41,2.333-21.052,3.465-31.72,3.376c-7.861,0.029-15.711-0.56-23.48-1.76
			C371.668,284.766,364.489,269.098,355.2,254.684z M352,350.972c0-2.736,4.92-7.416,15.416-11.064
			c0.328,4.232,0.544,8.48,0.544,12.8c0,3.12-0.232,6.216-0.408,9.32C357.664,358.548,352,354.068,352,350.972z M358.024,408.988
			l-2.28,6.264c-4.388-0.863-8.462-2.895-11.792-5.88c0.544-1.384,5.536-5.112,16.368-7.672
			C359.56,404.1,358.896,406.588,358.024,408.988z M361.72,445.636l4.328-11.92c2.4,0.328,4.736,0.608,7.144,0.8
			c-3.688,3.832-7.472,7.568-11.472,11.128V445.636z"/>
	</g>
</g>
<g>
	<g>
		<rect x="224" y="366.972" width="32" height="16"/>
	</g>
</g>
<g>
	<g>
		<rect x="224" y="398.972" width="32" height="16"/>
	</g>
</g>
<g>
	<g>
		<rect x="224" y="430.972" width="32" height="16"/>
	</g>
</g>
<g>
	<g>
		<rect x="168" y="302.972" width="32" height="16"/>
	</g>
</g>
<g>
	<g>
		<rect x="56" y="350.972" width="16" height="16"/>
	</g>
</g>
<g>
	<g>
		<rect x="56" y="382.972" width="16" height="16"/>
	</g>
</g>
<g>
	<g>
		<rect x="56" y="414.972" width="16" height="16"/>
	</g>
</g>
<g>
	<g>
		<rect x="56" y="254.972" width="16" height="16"/>
	</g>
</g>
<g>
	<g>
		<rect x="56" y="286.972" width="16" height="16"/>
	</g>
</g>
<g>
	<g>
		<rect x="56" y="318.972" width="16" height="16"/>
	</g>
</g>
<g>
	<g>
		<rect x="88" y="254.972" width="16" height="16"/>
	</g>
</g>
<g>
	<g>
		<rect x="88" y="286.972" width="16" height="16"/>
	</g>
</g>
<g>
	<g>
		<rect x="120" y="254.972" width="16" height="16"/>
	</g>
</g>
<g>
	<g>
		<rect x="72" y="190.972" width="16" height="16"/>
	</g>
</g>
<g>
	<g>
		<rect x="104" y="190.972" width="16" height="16"/>
	</g>
</g>
<g>
</g>
<g>
</g>
<g>
</g>
<g>
</g>
<g>
</g>
<g>
</g>
<g>
</g>
<g>
</g>
<g>
</g>
<g>
</g>
<g>
</g>
<g>
</g>
<g>
</g>
<g>
</g>
<g>
</g>
</svg>
